<svg xmlns="http://www.w3.org/2000/svg" viewBox="0 0 250 250" preserveAspectRatio="xMidYMid meet"><rect width="250" height="250" rx="40" ry="40" fill="#003049"/><g transform="translate(25, 25) scale(0.8)" fill="white" stroke="none"><g transform="translate(0, 250) scale(0.1, -0.1)"><path d="M1195 2465 c-254 -55 -460 -191 -609 -399 -108 -152 -186 -372 -186 -528 l0 -48 289 0 290 0 3 223 c3 202 5 225 23 257 38 64 71 75 235 77 107 1 147 5 152 15 4 7 28 60 54 118 60 138 82 187 105 234 13 28 16 43 9 50 -16 16 -293 17 -365 1z"/><path d="M1519 2086 c-2 -2 -3 -137 -1 -300 l3 -295 219 -3 c203 -3 221 -5 246 -24 65 -48 69 -61 72 -233 l3 -157 72 -34 c40 -18 128 -60 196 -92 89 -42 127 -56 135 -48 19 19 13 312 -7 400 -98 410 -396 698 -802 775 -79 15 -128 19 -136 11z"/><path d="M24 1533 c-34 -371 110 -713 389 -924 145 -109 321 -180 490 -195 l77 -7 -2 299 -3 299 -222 5 c-250 6 -259 8 -298 86 -17 33 -20 61 -22 184 l-1 144 -64 30 c-34 17 -123 58 -196 93 -73 35 -134 63 -137 63 -2 0 -7 -35 -11 -77z"/><path d="M1517 1003 c-4 -3 -7 -106 -7 -227 0 -202 -2 -224 -20 -253 -34 -57 -68 -67 -233 -73 l-148 -5 -65 -145 c-36 -80 -76 -169 -89 -198 -14 -29 -25 -57 -25 -62 0 -24 267 -32 365 -11 315 70 557 256 698 536 57 114 107 304 107 408 l0 37 -288 0 c-159 0 -292 -3 -295 -7z"/></g></g></svg>